     <svg
              id="sw-js-blob-svg"
              viewBox="0 0 100 100"
              xmlns="http://www.w3.org/2000/svg"
              version="1.1"
              width="600"
              height="600"
            >
              <defs>
                <linearGradient id="sw-gradient" x1="0" x2="1" y1="1" y2="0">
                  <stop id="stop1" stop-color="#b700f0" offset="0%"></stop>
                  <stop id="stop2" stop-color="#7400f5" offset="100%"></stop>
                </linearGradient>
              </defs>
              <mask id="mask1" mask-type="alpha">
                <path
                  fill="url(#sw-gradient)"
                  d="M25.9,-32.6C32.1,-25.5,34.9,-16.1,36.4,-6.6C37.9,2.9,38.1,12.5,34.2,20.3C30.4,28.1,22.5,34.2,14.1,36.2C5.6,38.2,-3.4,36.2,-10.7,32.3C-17.9,28.4,-23.4,22.5,-29.1,15.5C-34.8,8.4,-40.7,0.1,-39.1,-6.5C-37.4,-13.1,-28.2,-17.9,-20.5,-24.7C-12.7,-31.6,-6.4,-40.5,1.7,-42.5C9.8,-44.5,19.6,-39.8,25.9,-32.6Z"
                  width="100%"
                  height="100%"
                  transform="translate(50 50)"
                  stroke-width="0"
                  style="transition: all 0.3s ease 0s"
                ></path>
              </mask>
              <g mask="url(#mask1)">
                <path
                  fill="url(#sw-gradient)"
                  d="M25.9,-32.6C32.1,-25.5,34.9,-16.1,36.4,-6.6C37.9,2.9,38.1,12.5,34.2,20.3C30.4,28.1,22.5,34.2,14.1,36.2C5.6,38.2,-3.4,36.2,-10.7,32.3C-17.9,28.4,-23.4,22.5,-29.1,15.5C-34.8,8.4,-40.7,0.1,-39.1,-6.5C-37.4,-13.1,-28.2,-17.9,-20.5,-24.7C-12.7,-31.6,-6.4,-40.5,1.7,-42.5C9.8,-44.5,19.6,-39.8,25.9,-32.6Z"
                  width="100%"
                  height="100%"
                  transform="translate(50 50)"
                  stroke-width="0"
                  style="transition: all 0.3s ease 0s"
                ></path>
                <image
                  href="./assets/images/maincard.webp"
                  width="60"
                  x="17"
                  y="33"
                  alt=""
                />
              </g>
            </svg>